ffmpeg started on 2016-12-10 at 01:31:43
Report written to "Output/x264/results/ffmpeg/crowd_run_2160p50placebo13000k.log"
Command line:
Tools/ffmpeg/ffmpeg -benchmark -y -i Input/y4m/crowd_run_2160p50.y4m -c:v libx264 -preset placebo -b:v 13000k -an Output/x264/encoded/crowd_run_2160p50placebo13000k.mkv
ffmpeg version N-82227-gdb23fde Copyright (c) 2000-2016 the FFmpeg developers
  built with gcc 5.4.0 (Ubuntu 5.4.0-6ubuntu1~16.04.2) 20160609
  configuration: --prefix=/home/jaroslav/ffmpeg_build --pkg-config-flags=--static --extra-cflags=-I/home/jaroslav/ffmpeg_build/include --extra-ldflags=-L/home/jaroslav/ffmpeg_build/lib --bindir=/home/jaroslav/bin --enable-gpl --enable-libass --enable-libfdk-aac --enable-libfreetype --enable-libmp3lame --enable-libopus --enable-libtheora --enable-libvorbis --enable-libvpx --enable-libx264 --enable-libx265 --enable-nvenc --enable-libmfx --enable-libxvid --enable-libgsm --enable-libopencore-amrnb --enable-version3 --enable-nonfree
  libavutil      55. 35.100 / 55. 35.100
  libavcodec     57. 66.101 / 57. 66.101
  libavformat    57. 57.100 / 57. 57.100
  libavdevice    57.  2.100 / 57.  2.100
  libavfilter     6. 66.100 /  6. 66.100
  libswscale      4.  3.100 /  4.  3.100
  libswresample   2.  4.100 /  2.  4.100
  libpostproc    54.  2.100 / 54.  2.100
Input #0, yuv4mpegpipe, from 'Input/y4m/crowd_run_2160p50.y4m':
  Duration: 00:00:10.00, start: 0.000000, bitrate: 4976642 kb/s
    Stream #0:0: Video: rawvideo (I420 / 0x30323449), yuv420p(progressive), 3840x2160, SAR 1:1 DAR 16:9, 50 fps, 50 tbr, 50 tbn, 50 tbc
[libx264 @ 0x45131c0] using SAR=1/1
[libx264 @ 0x45131c0] DPB size (16 frames, 518400 mbs) > level limit (5 frames, 184320 mbs)
[libx264 @ 0x45131c0] using cpu capabilities: MMX2 SSE2Fast SSSE3 SSE4.2 AVX FMA3 AVX2 LZCNT BMI2
[libx264 @ 0x45131c0] profile High, level 5.2
[libx264 @ 0x45131c0] 264 - core 148 - H.264/MPEG-4 AVC codec - Copyleft 2003-2016 - http://www.videolan.org/x264.html - options: cabac=1 ref=16 deblock=1:0:0 analyse=0x3:0x133 me=tesa subme=11 psy=1 psy_rd=1.00:0.00 mixed_ref=1 me_range=24 chroma_me=1 trellis=2 8x8dct=1 cqm=0 deadzone=21,11 fast_pskip=0 chroma_qp_offset=-2 threads=6 lookahead_threads=1 sliced_threads=0 nr=0 decimate=1 interlaced=0 bluray_compat=0 constrained_intra=0 bframes=16 b_pyramid=2 b_adapt=2 b_bias=0 direct=3 weightb=1 open_gop=0 weightp=2 keyint=250 keyint_min=25 scenecut=40 intra_refresh=0 rc_lookahead=60 rc=abr mbtree=1 bitrate=13000 ratetol=1.0 qcomp=0.60 qpmin=0 qpmax=69 qpstep=4 ip_ratio=1.40 aq=1:1.00
Output #0, matroska, to 'Output/x264/encoded/crowd_run_2160p50placebo13000k.mkv':
  Metadata:
    encoder         : Lavf57.57.100
    Stream #0:0: Video: h264 (libx264) (H264 / 0x34363248), yuv420p, 3840x2160 [SAR 1:1 DAR 16:9], q=-1--1, 13000 kb/s, 50 fps, 1k tbn, 50 tbc
    Metadata:
      encoder         : Lavc57.66.101 libx264
    Side data:
      cpb: bitrate max/min/avg: 0/0/13000000 buffer size: 0 vbv_delay: -1
Stream mapping:
  Stream #0:0 -> #0:0 (rawvideo (native) -> h264 (libx264))
Press [q] to stop, [?] for help
frame=    7 fps=0.0 q=0.0 size=       0kB time=00:00:00.00 bitrate=N/A speed=   0x    frame=   24 fps= 23 q=0.0 size=       0kB time=00:00:00.00 bitrate=N/A speed=   0x    frame=   37 fps= 24 q=0.0 size=       0kB time=00:00:00.00 bitrate=N/A speed=   0x    frame=   46 fps= 22 q=0.0 size=       0kB time=00:00:00.00 bitrate=N/A speed=   0x    frame=   55 fps= 21 q=0.0 size=       0kB time=00:00:00.00 bitrate=N/A speed=   0x    frame=   64 fps= 20 q=0.0 size=       0kB time=00:00:00.00 bitrate=N/A speed=   0x    frame=   73 fps= 20 q=0.0 size=       0kB time=00:00:00.00 bitrate=N/A speed=   0x    frame=   82 fps= 19 q=0.0 size=       0kB time=00:00:00.00 bitrate=N/A speed=   0x    frame=   84 fps=3.4 q=0.0 size=       0kB time=00:00:00.00 bitrate=N/A speed=   0x    frame=   89 fps=3.1 q=40.0 size=       1kB time=-00:00:00.01 bitrate=N/A speed=N/A    frame=   90 fps=2.5 q=35.0 size=       1kB time=00:00:00.00 bitrate=5888.0kbits/s speed=2.82e-05x    frame=   91 fps=2.5 q=33.0 size=       1kB time=00:00:00.02 bitrate= 280.4kbits/s speed=0.000577x    frame=   92 fps=2.5 q=37.0 size=       1kB time=00:00:00.04 bitrate= 143.6kbits/s speed=0.00111x    frame=   95 fps=2.2 q=43.0 size=       1kB time=00:00:00.10 bitrate=  58.3kbits/s speed=0.00238x    frame=   96 fps=2.1 q=41.0 size=       1kB time=00:00:00.12 bitrate=  48.7kbits/s speed=0.00262x    frame=   97 fps=2.0 q=45.0 size=       1kB time=00:00:00.14 bitrate=  41.8kbits/s speed=0.00296x    frame=  100 fps=2.1 q=48.0 size=       1kB time=00:00:00.20 bitrate=  29.3kbits/s speed=0.00417x    frame=  101 fps=2.0 q=48.0 size=       1kB time=00:00:00.22 bitrate=  26.6kbits/s speed=0.00437x    frame=  102 fps=1.9 q=48.0 size=       1kB time=00:00:00.24 bitrate=  24.4kbits/s speed=0.00441x    frame=  103 fps=1.9 q=48.0 size=       1kB time=00:00:00.26 bitrate=  22.6kbits/s speed=0.00471x    frame=  105 fps=1.8 q=48.0 size=       1kB time=00:00:00.30 bitrate=  19.6kbits/s speed=0.00503x    frame=  106 fps=1.7 q=48.0 size=       1kB time=00:00:00.32 bitrate=  18.3kbits/s speed=0.00525x    frame=  107 fps=1.7 q=48.0 size=       1kB time=00:00:00.34 bitrate=  17.3kbits/s speed=0.00549x    frame=  110 fps=1.7 q=47.0 size=       1kB time=00:00:00.40 bitrate=  14.7kbits/s speed=0.00635x    frame=  111 fps=1.5 q=48.0 size=       1kB time=00:00:00.42 bitrate=  14.0kbits/s speed=0.0058x    frame=  112 fps=1.5 q=47.0 size=       1kB time=00:00:00.44 bitrate=  13.4kbits/s speed=0.00599x    frame=  113 fps=1.5 q=47.0 size=       1kB time=00:00:00.46 bitrate=  12.8kbits/s speed=0.00619x    frame=  115 fps=1.5 q=47.0 size=       1kB time=00:00:00.50 bitrate=  11.8kbits/s speed=0.00645x    frame=  116 fps=1.5 q=47.0 size=       1kB time=00:00:00.52 bitrate=  11.3kbits/s speed=0.00655x    frame=  117 fps=1.4 q=47.0 size=       1kB time=00:00:00.54 bitrate=  10.9kbits/s speed=0.00664x    frame=  118 fps=1.4 q=47.0 size=       1kB time=00:00:00.56 bitrate=  10.5kbits/s speed=0.00683x    frame=  119 fps=1.3 q=47.0 size=       1kB time=00:00:00.58 bitrate=  10.1kbits/s speed=0.00642x    frame=  120 fps=1.3 q=47.0 size=       1kB time=00:00:00.60 bitrate=   9.8kbits/s speed=0.00651x    frame=  121 fps=1.3 q=46.0 size=       1kB time=00:00:00.62 bitrate=   9.5kbits/s speed=0.00664x    frame=  123 fps=1.2 q=47.0 size=       1kB time=00:00:00.66 bitrate=   8.9kbits/s speed=0.00661x    frame=  124 fps=1.2 q=46.0 size=       1kB time=00:00:00.68 bitrate=   8.6kbits/s speed=0.00672x    frame=  125 fps=1.2 q=46.0 size=       1kB time=00:00:00.70 bitrate=   8.4kbits/s speed=0.0068x    frame=  127 fps=1.1 q=46.0 size=       1kB time=00:00:00.74 bitrate=   7.9kbits/s speed=0.00647x    frame=  128 fps=1.1 q=46.0 size=       1kB time=00:00:00.76 bitrate=   7.7kbits/s speed=0.00656x    frame=  129 fps=1.1 q=46.0 size=       1kB time=00:00:00.78 bitrate=   7.5kbits/s speed=0.00663x    frame=  132 fps=1.1 q=46.0 size=       1kB time=00:00:00.84 bitrate=   7.0kbits/s speed=0.00675x    frame=  133 fps=1.0 q=46.0 size=       1kB time=00:00:00.86 bitrate=   6.8kbits/s speed=0.0067x    frame=  134 fps=1.0 q=46.0 size=       1kB time=00:00:00.88 bitrate=   6.7kbits/s speed=0.00677x    frame=  137 fps=1.0 q=46.0 size=       1kB time=00:00:00.94 bitrate=   6.3kbits/s speed=0.00667x    frame=  138 fps=1.0 q=46.0 size=       1kB time=00:00:00.96 bitrate=   6.1kbits/s speed=0.00671x    frame=  139 fps=1.0 q=46.0 size=       1kB time=00:00:00.98 bitrate=   6.0kbits/s speed=0.00677x    frame=  142 fps=0.9 q=46.0 size=       1kB time=00:00:01.04 bitrate=   5.7kbits/s speed=0.00676x    frame=  143 fps=0.9 q=46.0 size=       1kB time=00:00:01.06 bitrate=   5.5kbits/s speed=0.00681x    frame=  144 fps=0.9 q=46.0 size=       1kB time=00:00:01.08 bitrate=   5.4kbits/s speed=0.00686x    frame=  147 fps=0.9 q=45.0 size=       1kB time=00:00:01.14 bitrate=   5.2kbits/s speed=0.00681x    frame=  148 fps=0.9 q=45.0 size=       1kB time=00:00:01.16 bitrate=   5.1kbits/s speed=0.00687x    frame=  149 fps=0.9 q=45.0 size=       1kB time=00:00:01.18 bitrate=   5.0kbits/s speed=0.00694x    frame=  151 fps=0.8 q=45.0 size=       1kB time=00:00:01.22 bitrate=   4.8kbits/s speed=0.00682x    frame=  152 fps=0.8 q=45.0 size=       1kB time=00:00:01.24 bitrate=   4.7kbits/s speed=0.00684x    frame=  153 fps=0.8 q=45.0 size=       1kB time=00:00:01.26 bitrate=   4.7kbits/s speed=0.00689x    frame=  156 fps=0.8 q=45.0 size=       1kB time=00:00:01.32 bitrate=   4.5kbits/s speed=0.00692x    frame=  157 fps=0.8 q=45.0 size=       1kB time=00:00:01.34 bitrate=   4.4kbits/s speed=0.00695x    frame=  158 fps=0.8 q=45.0 size=       1kB time=00:00:01.36 bitrate=   4.3kbits/s speed=0.00699x    frame=  160 fps=0.8 q=45.0 size=       1kB time=00:00:01.40 bitrate=   4.2kbits/s speed=0.00686x    frame=  161 fps=0.8 q=45.0 size=       1kB time=00:00:01.42 bitrate=   4.1kbits/s speed=0.00689x    frame=  162 fps=0.8 q=45.0 size=       1kB time=00:00:01.44 bitrate=   4.1kbits/s speed=0.00692x    frame=  165 fps=0.8 q=45.0 size=       1kB time=00:00:01.50 bitrate=   3.9kbits/s speed=0.00692x    frame=  166 fps=0.8 q=45.0 size=       1kB time=00:00:01.52 bitrate=   3.9kbits/s speed=0.00695x    frame=  167 fps=0.8 q=45.0 size=       1kB time=00:00:01.54 bitrate=   3.8kbits/s speed=0.007x    frame=  169 fps=0.7 q=45.0 size=       1kB time=00:00:01.58 bitrate=   3.7kbits/s speed=0.00689x    frame=  170 fps=0.7 q=45.0 size=       1kB time=00:00:01.60 bitrate=   3.7kbits/s speed=0.00693x    frame=  171 fps=0.7 q=45.0 size=       1kB time=00:00:01.62 bitrate=   3.6kbits/s speed=0.00697x    frame=  173 fps=0.7 q=44.0 size=       1kB time=00:00:01.66 bitrate=   3.5kbits/s speed=0.00711x    frame=  174 fps=0.7 q=44.0 size=       1kB time=00:00:01.68 bitrate=   3.5kbits/s speed=0.00688x    frame=  175 fps=0.7 q=44.0 size=       1kB time=00:00:01.70 bitrate=   3.5kbits/s speed=0.00692x    frame=  176 fps=0.7 q=44.0 size=       1kB time=00:00:01.72 bitrate=   3.4kbits/s speed=0.00695x    frame=  179 fps=0.7 q=44.0 size=       1kB time=00:00:01.78 bitrate=   3.3kbits/s speed=0.00691x    frame=  180 fps=0.7 q=44.0 size=       1kB time=00:00:01.80 bitrate=   3.3kbits/s speed=0.00695x    frame=  181 fps=0.7 q=44.0 size=       1kB time=00:00:01.82 bitrate=   3.2kbits/s speed=0.007x    frame=  183 fps=0.7 q=44.0 size=       1kB time=00:00:01.86 bitrate=   3.2kbits/s speed=0.00691x    frame=  184 fps=0.7 q=44.0 size=       1kB time=00:00:01.88 bitrate=   3.1kbits/s speed=0.00695x    frame=  185 fps=0.7 q=44.0 size=       1kB time=00:00:01.90 bitrate=   3.1kbits/s speed=0.00698x    frame=  187 fps=0.7 q=44.0 size=       1kB time=00:00:01.94 bitrate=   3.0kbits/s speed=0.00687x    frame=  188 fps=0.7 q=44.0 size=       1kB time=00:00:01.96 bitrate=   3.0kbits/s speed=0.00691x    frame=  189 fps=0.7 q=44.0 size=       1kB time=00:00:01.98 bitrate=   3.0kbits/s speed=0.00695x    frame=  193 fps=0.6 q=44.0 size=       1kB time=00:00:02.06 bitrate=   2.9kbits/s speed=0.00683x    frame=  194 fps=0.6 q=44.0 size=       1kB time=00:00:02.08 bitrate=   2.8kbits/s speed=0.00686x    frame=  195 fps=0.6 q=44.0 size=       1kB time=00:00:02.10 bitrate=   2.8kbits/s speed=0.00689x    frame=  198 fps=0.6 q=44.0 size=       1kB time=00:00:02.16 bitrate=   2.7kbits/s speed=0.00698x    frame=  199 fps=0.6 q=44.0 size=       1kB time=00:00:02.18 bitrate=   2.7kbits/s speed=0.00688x    frame=  200 fps=0.6 q=44.0 size=       1kB time=00:00:02.20 bitrate=   2.7kbits/s speed=0.00692x    frame=  203 fps=0.6 q=44.0 size=       1kB time=00:00:02.26 bitrate=   2.6kbits/s speed=0.00709x    frame=  204 fps=0.6 q=44.0 size=       1kB time=00:00:02.28 bitrate=   2.6kbits/s speed=0.00689x    frame=  205 fps=0.6 q=44.0 size=       1kB time=00:00:02.30 bitrate=   2.6kbits/s speed=0.00693x    frame=  206 fps=0.6 q=44.0 size=       1kB time=00:00:02.32 bitrate=   2.5kbits/s speed=0.00696x    frame=  208 fps=0.6 q=44.0 size=       1kB time=00:00:02.36 bitrate=   2.5kbits/s speed=0.00688x    frame=  209 fps=0.6 q=44.0 size=       1kB time=00:00:02.38 bitrate=   2.5kbits/s speed=0.00691x    frame=  210 fps=0.6 q=44.0 size=       1kB time=00:00:02.40 bitrate=   2.5kbits/s speed=0.00694x    frame=  214 fps=0.6 q=44.0 size=       1kB time=00:00:02.48 bitrate=   2.4kbits/s speed=0.00685x    frame=  215 fps=0.6 q=44.0 size=       1kB time=00:00:02.50 bitrate=   2.4kbits/s speed=0.00687x    frame=  216 fps=0.6 q=44.0 size=       1kB time=00:00:02.52 bitrate=   2.3kbits/s speed=0.00689x    frame=  219 fps=0.6 q=44.0 size=       1kB time=00:00:02.58 bitrate=   2.3kbits/s speed=0.00699x    frame=  220 fps=0.6 q=44.0 size=       1kB time=00:00:02.60 bitrate=   2.3kbits/s speed=0.00688x    frame=  221 fps=0.6 q=44.0 size=       1kB time=00:00:02.62 bitrate=   2.2kbits/s speed=0.00691x    frame=  222 fps=0.6 q=44.0 size=       1kB time=00:00:02.64 bitrate=   2.2kbits/s speed=0.00695x    frame=  225 fps=0.6 q=44.0 size=       1kB time=00:00:02.70 bitrate=   2.2kbits/s speed=0.00689x    frame=  226 fps=0.6 q=44.0 size=       1kB time=00:00:02.72 bitrate=   2.2kbits/s speed=0.00692x    frame=  227 fps=0.6 q=44.0 size=       1kB time=00:00:02.74 bitrate=   2.1kbits/s speed=0.00695x    frame=  229 fps=0.6 q=43.0 size=       1kB time=00:00:02.78 bitrate=   2.1kbits/s speed=0.00687x    frame=  230 fps=0.6 q=43.0 size=       1kB time=00:00:02.80 bitrate=   2.1kbits/s speed=0.00689x    frame=  231 fps=0.6 q=43.0 size=       1kB time=00:00:02.82 bitrate=   2.1kbits/s speed=0.00692x    frame=  234 fps=0.6 q=43.0 size=       1kB time=00:00:02.88 bitrate=   2.0kbits/s speed=0.00687x    frame=  235 fps=0.6 q=43.0 size=       1kB time=00:00:02.90 bitrate=   2.0kbits/s speed=0.0069x    frame=  236 fps=0.6 q=43.0 size=       1kB time=00:00:02.92 bitrate=   2.0kbits/s speed=0.00693x    frame=  238 fps=0.6 q=43.0 size=       1kB time=00:00:02.96 bitrate=   2.0kbits/s speed=0.00686x    frame=  239 fps=0.6 q=43.0 size=    5137kB time=00:00:02.98 bitrate=14115.7kbits/s speed=0.00687x    frame=  240 fps=0.6 q=43.0 size=    5137kB time=00:00:03.00 bitrate=14021.6kbits/s speed=0.00689x    frame=  244 fps=0.5 q=43.0 size=    5137kB time=00:00:03.08 bitrate=13657.5kbits/s speed=0.0068x    frame=  245 fps=0.5 q=43.0 size=    5137kB time=00:00:03.10 bitrate=13569.5kbits/s speed=0.00682x    frame=  246 fps=0.5 q=43.0 size=    5137kB time=00:00:03.12 bitrate=13482.5kbits/s speed=0.00685x    frame=  250 fps=0.5 q=43.0 size=    5137kB time=00:00:03.20 bitrate=13145.5kbits/s speed=0.00676x    frame=  251 fps=0.5 q=43.0 size=    5137kB time=00:00:03.22 bitrate=13063.9kbits/s speed=0.00678x    frame=  252 fps=0.5 q=43.0 size=    5137kB time=00:00:03.24 bitrate=12983.3kbits/s speed=0.00681x    frame=  255 fps=0.5 q=43.0 size=    5137kB time=00:00:03.30 bitrate=12747.3kbits/s speed=0.00686x    frame=  256 fps=0.5 q=43.0 size=    5137kB time=00:00:03.32 bitrate=12670.5kbits/s speed=0.00677x    frame=  257 fps=0.5 q=43.0 size=    5137kB time=00:00:03.34 bitrate=12594.7kbits/s speed=0.00679x    frame=  261 fps=0.5 q=43.0 size=    5137kB time=00:00:03.42 bitrate=12300.2kbits/s speed=0.00678x    frame=  262 fps=0.5 q=43.0 size=    5137kB time=00:00:03.44 bitrate=12228.7kbits/s speed=0.0068x    frame=  263 fps=0.5 q=43.0 size=    5137kB time=00:00:03.46 bitrate=12158.0kbits/s speed=0.00681x    frame=  266 fps=0.5 q=43.0 size=    5137kB time=00:00:03.52 bitrate=11950.8kbits/s speed=0.00676x    frame=  267 fps=0.5 q=43.0 size=    5137kB time=00:00:03.54 bitrate=11883.3kbits/s speed=0.00677x    frame=  268 fps=0.5 q=43.0 size=    5137kB time=00:00:03.56 bitrate=11816.6kbits/s speed=0.00679x    frame=  271 fps=0.5 q=43.0 size=    5137kB time=00:00:03.62 bitrate=11620.8kbits/s speed=0.0068x    frame=  272 fps=0.5 q=43.0 size=    5137kB time=00:00:03.64 bitrate=11557.0kbits/s speed=0.00677x    frame=  273 fps=0.5 q=43.0 size=    5137kB time=00:00:03.66 bitrate=11493.8kbits/s speed=0.00679x    frame=  275 fps=0.5 q=43.0 size=    5137kB time=00:00:03.70 bitrate=11369.6kbits/s speed=0.00686x    frame=  276 fps=0.5 q=43.0 size=    5137kB time=00:00:03.72 bitrate=11308.5kbits/s speed=0.00678x    frame=  277 fps=0.5 q=43.0 size=    5137kB time=00:00:03.74 bitrate=11248.0kbits/s speed=0.00679x    frame=  278 fps=0.5 q=43.0 size=    5137kB time=00:00:03.76 bitrate=11188.2kbits/s speed=0.0068x    frame=  280 fps=0.5 q=43.0 size=    5137kB time=00:00:03.80 bitrate=11070.5kbits/s speed=0.00675x    frame=  281 fps=0.5 q=43.0 size=    5137kB time=00:00:03.82 bitrate=11012.5kbits/s speed=0.00677x    frame=  282 fps=0.5 q=43.0 size=    5137kB time=00:00:03.84 bitrate=10955.2kbits/s speed=0.00678x    frame=  285 fps=0.5 q=43.0 size=    5137kB time=00:00:03.90 bitrate=10786.7kbits/s speed=0.00674x    frame=  286 fps=0.5 q=43.0 size=    5137kB time=00:00:03.92 bitrate=10731.7kbits/s speed=0.00675x    frame=  287 fps=0.5 q=43.0 size=    5137kB time=00:00:03.94 bitrate=10677.2kbits/s speed=0.00676x    frame=  290 fps=0.5 q=43.0 size=    5137kB time=00:00:04.00 bitrate=10517.1kbits/s speed=0.00677x    frame=  291 fps=0.5 q=43.0 size=    5137kB time=00:00:04.02 bitrate=10464.8kbits/s speed=0.00678x    frame=  292 fps=0.5 q=43.0 size=    5137kB time=00:00:04.04 bitrate=10413.0kbits/s speed=0.00679x    frame=  294 fps=0.5 q=43.0 size=    5137kB time=00:00:04.08 bitrate=10310.9kbits/s speed=0.00673x    frame=  295 fps=0.5 q=43.0 size=    5137kB time=00:00:04.10 bitrate=10260.6kbits/s speed=0.00674x    frame=  296 fps=0.5 q=43.0 size=    5137kB time=00:00:04.12 bitrate=10210.8kbits/s speed=0.00675x    frame=  299 fps=0.5 q=43.0 size=    5137kB time=00:00:04.18 bitrate=10064.3kbits/s speed=0.00674x    frame=  300 fps=0.5 q=43.0 size=    5137kB time=00:00:04.20 bitrate=10016.4kbits/s speed=0.00675x    frame=  301 fps=0.5 q=43.0 size=    5137kB time=00:00:04.22 bitrate=9968.9kbits/s speed=0.00676x    frame=  303 fps=0.5 q=43.0 size=    5137kB time=00:00:04.26 bitrate=9875.4kbits/s speed=0.00682x    frame=  304 fps=0.5 q=43.0 size=    5137kB time=00:00:04.28 bitrate=9829.2kbits/s speed=0.00673x    frame=  305 fps=0.5 q=43.0 size=    5137kB time=00:00:04.30 bitrate=9783.5kbits/s speed=0.00675x    frame=  306 fps=0.5 q=43.0 size=    5137kB time=00:00:04.32 bitrate=9738.2kbits/s speed=0.00677x    frame=  308 fps=0.5 q=43.0 size=    5137kB time=00:00:04.36 bitrate=9648.9kbits/s speed=0.00672x    frame=  309 fps=0.5 q=43.0 size=    5137kB time=00:00:04.38 bitrate=9604.9kbits/s speed=0.00673x    frame=  310 fps=0.5 q=43.0 size=    5137kB time=00:00:04.40 bitrate=9561.2kbits/s speed=0.00675x    frame=  313 fps=0.5 q=43.0 size=    5137kB time=00:00:04.46 bitrate=9432.6kbits/s speed=0.00671x    frame=  314 fps=0.5 q=43.0 size=    5137kB time=00:00:04.48 bitrate=9390.5kbits/s speed=0.00672x    frame=  315 fps=0.5 q=43.0 size=    5137kB time=00:00:04.50 bitrate=9348.8kbits/s speed=0.00673x    frame=  318 fps=0.5 q=43.0 size=    5137kB time=00:00:04.56 bitrate=9225.8kbits/s speed=0.00669x    frame=  319 fps=0.5 q=43.0 size=    5137kB time=00:00:04.58 bitrate=9185.5kbits/s speed=0.00671x    frame=  320 fps=0.5 q=43.0 size=    5137kB time=00:00:04.60 bitrate=9145.6kbits/s speed=0.00672x    frame=  323 fps=0.5 q=43.0 size=    5137kB time=00:00:04.66 bitrate=9027.9kbits/s speed=0.00668x    frame=  324 fps=0.5 q=43.0 size=    5137kB time=00:00:04.68 bitrate=8989.3kbits/s speed=0.0067x    frame=  325 fps=0.5 q=43.0 size=    5137kB time=00:00:04.70 bitrate=8951.0kbits/s speed=0.00671x    frame=  328 fps=0.5 q=43.0 size=    5137kB time=00:00:04.76 bitrate=8838.2kbits/s speed=0.00668x    frame=  329 fps=0.5 q=43.0 size=    5137kB time=00:00:04.78 bitrate=8801.3kbits/s speed=0.00669x    frame=  330 fps=0.5 q=43.0 size=    5137kB time=00:00:04.80 bitrate=8764.6kbits/s speed=0.00671x    frame=  333 fps=0.5 q=40.0 size=    5137kB time=00:00:04.86 bitrate=8656.4kbits/s speed=0.00667x    frame=  334 fps=0.5 q=43.0 size=    5137kB time=00:00:04.88 bitrate=8621.0kbits/s speed=0.00668x    frame=  335 fps=0.5 q=43.0 size=    5137kB time=00:00:04.90 bitrate=8585.8kbits/s speed=0.0067x    frame=  338 fps=0.5 q=43.0 size=    8052kB time=00:00:04.96 bitrate=13295.7kbits/s speed=0.00677x    frame=  340 fps=0.5 q=43.0 size=    8052kB time=00:00:05.00 bitrate=13189.4kbits/s speed=0.00682x    frame=  341 fps=0.5 q=43.0 size=    8052kB time=00:00:05.02 bitrate=13136.8kbits/s speed=0.00683x    frame=  342 fps=0.5 q=43.0 size=    8052kB time=00:00:05.04 bitrate=13084.7kbits/s speed=0.00685x    frame=  344 fps=0.5 q=43.0 size=    8052kB time=00:00:05.08 bitrate=12981.7kbits/s speed=0.00686x    frame=  345 fps=0.5 q=43.0 size=    8052kB time=00:00:05.10 bitrate=12930.8kbits/s speed=0.00688x    frame=  346 fps=0.5 q=43.0 size=    8052kB time=00:00:05.12 bitrate=12880.3kbits/s speed=0.0069x    frame=  349 fps=0.5 q=43.0 size=    8052kB time=00:00:05.18 bitrate=12731.2kbits/s speed=0.00693x    frame=  350 fps=0.5 q=43.0 size=    8052kB time=00:00:05.20 bitrate=12682.2kbits/s speed=0.00695x    frame=  351 fps=0.5 q=43.0 size=    8052kB time=00:00:05.22 bitrate=12633.6kbits/s speed=0.00697x    frame=  354 fps=0.5 q=43.0 size=    8052kB time=00:00:05.28 bitrate=12490.1kbits/s speed=0.00699x    frame=  355 fps=0.5 q=43.0 size=    8052kB time=00:00:05.30 bitrate=12443.0kbits/s speed=0.007x    frame=  356 fps=0.5 q=43.0 size=    8052kB time=00:00:05.32 bitrate=12396.2kbits/s speed=0.00702x    frame=  358 fps=0.5 q=43.0 size=    8052kB time=00:00:05.36 bitrate=12303.7kbits/s speed=0.007x    frame=  359 fps=0.5 q=43.0 size=    8052kB time=00:00:05.38 bitrate=12258.0kbits/s speed=0.00702x    frame=  360 fps=0.5 q=43.0 size=    8052kB time=00:00:05.40 bitrate=12212.6kbits/s speed=0.00703x    frame=  363 fps=0.5 q=43.0 size=    8052kB time=00:00:05.46 bitrate=12078.4kbits/s speed=0.00702x    frame=  364 fps=0.5 q=43.0 size=    8052kB time=00:00:05.48 bitrate=12034.3kbits/s speed=0.00703x    frame=  365 fps=0.5 q=43.0 size=    8052kB time=00:00:05.50 bitrate=11990.6kbits/s speed=0.00704x    frame=  367 fps=0.5 q=43.0 size=    8052kB time=00:00:05.54 bitrate=11904.0kbits/s speed=0.00709x    frame=  368 fps=0.5 q=43.0 size=    8052kB time=00:00:05.56 bitrate=11861.2kbits/s speed=0.00702x    frame=  369 fps=0.5 q=43.0 size=    8052kB time=00:00:05.58 bitrate=11818.7kbits/s speed=0.00703x    frame=  370 fps=0.5 q=43.0 size=    8052kB time=00:00:05.60 bitrate=11776.5kbits/s speed=0.00704x    frame=  372 fps=0.5 q=43.0 size=    8052kB time=00:00:05.64 bitrate=11693.0kbits/s speed=0.00708x    frame=  373 fps=0.5 q=43.0 size=    8052kB time=00:00:05.66 bitrate=11651.7kbits/s speed=0.007x    frame=  374 fps=0.5 q=43.0 size=    8052kB time=00:00:05.68 bitrate=11610.6kbits/s speed=0.007x    frame=  375 fps=0.5 q=43.0 size=    8052kB time=00:00:05.70 bitrate=11569.9kbits/s speed=0.00701x    frame=  378 fps=0.5 q=43.0 size=    8052kB time=00:00:05.76 bitrate=11449.4kbits/s speed=0.00703x    frame=  379 fps=0.5 q=43.0 size=    8052kB time=00:00:05.78 bitrate=11409.8kbits/s speed=0.00702x    frame=  380 fps=0.5 q=43.0 size=    8052kB time=00:00:05.80 bitrate=11370.5kbits/s speed=0.00703x    frame=  382 fps=0.5 q=43.0 size=    8052kB time=00:00:05.84 bitrate=11292.6kbits/s speed=0.00697x    frame=  383 fps=0.5 q=43.0 size=    8052kB time=00:00:05.86 bitrate=11254.1kbits/s speed=0.00698x    frame=  384 fps=0.5 q=43.0 size=    8052kB time=00:00:05.88 bitrate=11215.8kbits/s speed=0.007x    frame=  385 fps=0.5 q=43.0 size=    8052kB time=00:00:05.90 bitrate=11177.8kbits/s speed=0.00701x    frame=  387 fps=0.5 q=43.0 size=    8052kB time=00:00:05.94 bitrate=11102.5kbits/s speed=0.00701x    frame=  388 fps=0.5 q=43.0 size=    8052kB time=00:00:05.96 bitrate=11065.3kbits/s speed=0.007x    frame=  389 fps=0.5 q=43.0 size=    8052kB time=00:00:05.98 bitrate=11028.3kbits/s speed=0.00701x    frame=  391 fps=0.5 q=43.0 size=    8052kB time=00:00:06.02 bitrate=10955.0kbits/s speed=0.00695x    frame=  392 fps=0.5 q=43.0 size=    8052kB time=00:00:06.04 bitrate=10918.7kbits/s speed=0.00696x    frame=  393 fps=0.5 q=43.0 size=    8052kB time=00:00:06.06 bitrate=10882.7kbits/s speed=0.00698x    frame=  396 fps=0.5 q=43.0 size=    8052kB time=00:00:06.12 bitrate=10776.0kbits/s speed=0.00697x    frame=  397 fps=0.5 q=43.0 size=    8052kB time=00:00:06.14 bitrate=10740.9kbits/s speed=0.00697x    frame=  398 fps=0.5 q=43.0 size=    8052kB time=00:00:06.16 bitrate=10706.1kbits/s speed=0.00698x    frame=  402 fps=0.4 q=43.0 size=    8052kB time=00:00:06.24 bitrate=10568.8kbits/s speed=0.00692x    frame=  403 fps=0.4 q=43.0 size=    8052kB time=00:00:06.26 bitrate=10535.1kbits/s speed=0.00694x    frame=  404 fps=0.4 q=43.0 size=    8052kB time=00:00:06.28 bitrate=10501.5kbits/s speed=0.00694x    frame=  407 fps=0.4 q=43.0 size=    8052kB time=00:00:06.34 bitrate=10402.2kbits/s speed=0.00698x    frame=  408 fps=0.4 q=43.0 size=    8052kB time=00:00:06.36 bitrate=10369.5kbits/s speed=0.00693x    frame=  409 fps=0.4 q=43.0 size=    8052kB time=00:00:06.38 bitrate=10337.0kbits/s speed=0.00695x    frame=  412 fps=0.4 q=43.0 size=    8052kB time=00:00:06.44 bitrate=10240.7kbits/s speed=0.00692x    frame=  413 fps=0.4 q=43.0 size=    8052kB time=00:00:06.46 bitrate=10209.0kbits/s speed=0.00693x    frame=  414 fps=0.4 q=43.0 size=    8052kB time=00:00:06.48 bitrate=10177.5kbits/s speed=0.00693x    frame=  417 fps=0.4 q=43.0 size=    8052kB time=00:00:06.54 bitrate=10084.1kbits/s speed=0.00693x    frame=  418 fps=0.4 q=43.0 size=    8052kB time=00:00:06.56 bitrate=10053.4kbits/s speed=0.00693x    frame=  419 fps=0.4 q=43.0 size=    8052kB time=00:00:06.58 bitrate=10022.8kbits/s speed=0.00694x    frame=  421 fps=0.4 q=43.0 size=    8052kB time=00:00:06.62 bitrate=9962.3kbits/s speed=0.0069x    frame=  422 fps=0.4 q=43.0 size=    8052kB time=00:00:06.64 bitrate=9932.3kbits/s speed=0.00691x    frame=  423 fps=0.4 q=43.0 size=    8052kB time=00:00:06.66 bitrate=9902.4kbits/s speed=0.00691x    frame=  426 fps=0.4 q=43.0 size=    8052kB time=00:00:06.72 bitrate=9814.0kbits/s speed=0.00692x    frame=  427 fps=0.4 q=43.0 size=    8052kB time=00:00:06.74 bitrate=9784.9kbits/s speed=0.00691x    frame=  428 fps=0.4 q=43.0 size=    8052kB time=00:00:06.76 bitrate=9756.0kbits/s speed=0.00692x    frame=  430 fps=0.4 q=43.0 size=    8052kB time=00:00:06.80 bitrate=9698.6kbits/s speed=0.00688x    frame=  431 fps=0.4 q=43.0 size=    8052kB time=00:00:06.82 bitrate=9670.2kbits/s speed=0.00689x    frame=  432 fps=0.4 q=43.0 size=    8052kB time=00:00:06.84 bitrate=9641.9kbits/s speed=0.0069x    frame=  436 fps=0.4 q=43.0 size=    8052kB time=00:00:06.92 bitrate=9530.4kbits/s speed=0.00687x    frame=  437 fps=0.4 q=43.0 size=    8052kB time=00:00:06.94 bitrate=9503.0kbits/s speed=0.00687x    frame=  438 fps=0.4 q=43.0 size=    8052kB time=00:00:06.96 bitrate=9475.7kbits/s speed=0.00688x    frame=  440 fps=0.4 q=43.0 size=    8052kB time=00:00:07.00 bitrate=9421.5kbits/s speed=0.0069x    frame=  441 fps=0.4 q=43.0 size=    8052kB time=00:00:07.02 bitrate=9394.7kbits/s speed=0.0069x    frame=  442 fps=0.4 q=43.0 size=    8052kB time=00:00:07.04 bitrate=9368.0kbits/s speed=0.0069x    frame=  443 fps=0.4 q=43.0 size=    8052kB time=00:00:07.06 bitrate=9341.5kbits/s speed=0.0069x    frame=  444 fps=0.4 q=43.0 size=    8052kB time=00:00:07.08 bitrate=9315.1kbits/s speed=0.00691x    frame=  445 fps=0.4 q=43.0 size=    8052kB time=00:00:07.10 bitrate=9288.8kbits/s speed=0.00686x    frame=  446 fps=0.4 q=43.0 size=    8052kB time=00:00:07.12 bitrate=9262.8kbits/s speed=0.00687x    frame=  447 fps=0.4 q=43.0 size=    8052kB time=00:00:07.14 bitrate=9236.8kbits/s speed=0.00688x    frame=  449 fps=0.4 q=43.0 size=    8052kB time=00:00:07.18 bitrate=9185.4kbits/s speed=0.00686x    frame=  450 fps=0.4 q=43.0 size=    8052kB time=00:00:07.20 bitrate=9159.9kbits/s speed=0.00687x    frame=  451 fps=0.4 q=43.0 size=    8052kB time=00:00:07.22 bitrate=9134.5kbits/s speed=0.00688x    frame=  452 fps=0.4 q=43.0 size=    8052kB time=00:00:07.24 bitrate=9109.3kbits/s speed=0.00689x    frame=  455 fps=0.4 q=43.0 size=    8052kB time=00:00:07.30 bitrate=9034.4kbits/s speed=0.00684x    frame=  456 fps=0.4 q=43.0 size=    8052kB time=00:00:07.32 bitrate=9009.7kbits/s speed=0.00685x    frame=  457 fps=0.4 q=43.0 size=    8052kB time=00:00:07.34 bitrate=8985.2kbits/s speed=0.00686x    frame=  459 fps=0.4 q=43.0 size=    8052kB time=00:00:07.38 bitrate=8936.5kbits/s speed=0.00686x    frame=  460 fps=0.4 q=43.0 size=    8052kB time=00:00:07.40 bitrate=8912.3kbits/s speed=0.00687x    frame=  461 fps=0.4 q=43.0 size=    8052kB time=00:00:07.42 bitrate=8888.3kbits/s speed=0.00686x    frame=  462 fps=0.4 q=43.0 size=    8052kB time=00:00:07.44 bitrate=8864.4kbits/s speed=0.00687x    frame=  464 fps=0.4 q=43.0 size=    8052kB time=00:00:07.48 bitrate=8817.0kbits/s speed=0.00689x    frame=  465 fps=0.4 q=43.0 size=    8052kB time=00:00:07.50 bitrate=8793.5kbits/s speed=0.00684x    frame=  466 fps=0.4 q=43.0 size=    8052kB time=00:00:07.52 bitrate=8770.1kbits/s speed=0.00684x    frame=  467 fps=0.4 q=43.0 size=    8052kB time=00:00:07.54 bitrate=8746.9kbits/s speed=0.00685x    frame=  469 fps=0.4 q=43.0 size=    8052kB time=00:00:07.58 bitrate=8700.7kbits/s speed=0.00686x    frame=  470 fps=0.4 q=43.0 size=    8052kB time=00:00:07.60 bitrate=8677.8kbits/s speed=0.00687x    frame=  471 fps=0.4 q=43.0 size=    8052kB time=00:00:07.62 bitrate=8655.0kbits/s speed=0.00688x    frame=  472 fps=0.4 q=43.0 size=    8052kB time=00:00:07.64 bitrate=8632.4kbits/s speed=0.00689x    frame=  473 fps=0.4 q=43.0 size=    8052kB time=00:00:07.66 bitrate=8609.9kbits/s speed=0.00683x    frame=  474 fps=0.4 q=43.0 size=    8052kB time=00:00:07.68 bitrate=8587.4kbits/s speed=0.00684x    frame=  475 fps=0.4 q=43.0 size=    8052kB time=00:00:07.70 bitrate=8565.1kbits/s speed=0.00685x    frame=  477 fps=0.4 q=43.0 size=    8052kB time=00:00:07.74 bitrate=8520.9kbits/s speed=0.00686x    frame=  478 fps=0.4 q=43.0 size=    8052kB time=00:00:07.76 bitrate=8498.9kbits/s speed=0.00687x    frame=  479 fps=0.4 q=43.0 size=    8052kB time=00:00:07.78 bitrate=8477.1kbits/s speed=0.00687x    frame=  480 fps=0.4 q=43.0 size=    8052kB time=00:00:07.80 bitrate=8455.3kbits/s speed=0.00682x    frame=  481 fps=0.4 q=43.0 size=    8052kB time=00:00:07.82 bitrate=8433.7kbits/s speed=0.00683x    frame=  482 fps=0.4 q=43.0 size=    8052kB time=00:00:07.84 bitrate=8412.2kbits/s speed=0.00684x    frame=  483 fps=0.4 q=43.0 size=    8052kB time=00:00:07.86 bitrate=8390.8kbits/s speed=0.00684x    frame=  484 fps=0.4 q=43.0 size=    8052kB time=00:00:07.88 bitrate=8369.5kbits/s speed=0.00685x    frame=  485 fps=0.4 q=43.0 size=    8052kB time=00:00:07.90 bitrate=8348.3kbits/s speed=0.00686x    frame=  486 fps=0.4 q=43.0 size=    8052kB time=00:00:07.92 bitrate=8327.2kbits/s speed=0.00686x    frame=  487 fps=0.4 q=43.0 size=    8052kB time=00:00:07.94 bitrate=8306.3kbits/s speed=0.00681x    frame=  488 fps=0.4 q=43.0 size=    8052kB time=00:00:07.96 bitrate=8285.4kbits/s speed=0.00682x    frame=  489 fps=0.4 q=43.0 size=    8052kB time=00:00:07.98 bitrate=8264.6kbits/s speed=0.00683x    frame=  490 fps=0.4 q=43.0 size=    8052kB time=00:00:08.00 bitrate=8244.0kbits/s speed=0.00683x    frame=  491 fps=0.4 q=43.0 size=    8052kB time=00:00:08.02 bitrate=8223.4kbits/s speed=0.00684x    frame=  492 fps=0.4 q=43.0 size=    8052kB time=00:00:08.04 bitrate=8203.0kbits/s speed=0.00685x    frame=  493 fps=0.4 q=43.0 size=    8052kB time=00:00:08.06 bitrate=8182.6kbits/s speed=0.00685x    frame=  494 fps=0.4 q=43.0 size=    8052kB time=00:00:08.08 bitrate=8162.4kbits/s speed=0.0068x    frame=  495 fps=0.4 q=43.0 size=    8052kB time=00:00:08.10 bitrate=8142.2kbits/s speed=0.00681x    frame=  496 fps=0.4 q=43.0 size=    8052kB time=00:00:08.12 bitrate=8122.2kbits/s speed=0.00682x    frame=  498 fps=0.4 q=43.0 size=    8052kB time=00:00:08.16 bitrate=8082.4kbits/s speed=0.00682x    frame=  499 fps=0.4 q=43.0 size=    8052kB time=00:00:08.18 bitrate=8062.6kbits/s speed=0.00683x    frame=  500 fps=0.4 q=43.0 size=    8052kB time=00:00:08.20 bitrate=8042.9kbits/s speed=0.00684x    frame=  500 fps=0.4 q=43.0 size=    8052kB time=00:00:08.20 bitrate=8042.9kbits/s speed=0.00683x    frame=  500 fps=0.3 q=-1.0 Lsize=   15715kB time=00:00:09.94 bitrate=12950.1kbits/s speed=0.00678x    
video:15710kB audio:0kB subtitle:0kB other streams:0kB global headers:0kB muxing overhead: 0.029352%
bench: utime=5599.896s
bench: maxrss=4896380kB
[libx264 @ 0x45131c0] frame I:2     Avg QP:34.07  size:497414
[libx264 @ 0x45131c0] frame P:108   Avg QP:43.96  size: 67658
[libx264 @ 0x45131c0] frame B:390   Avg QP:46.31  size: 19961
[libx264 @ 0x45131c0] consecutive B-frames:  0.6%  0.4%  3.6% 32.8% 41.0% 21.6%  0.0%  0.0%  0.0%  0.0%  0.0%  0.0%  0.0%  0.0%  0.0%  0.0%  0.0%
[libx264 @ 0x45131c0] mb I  I16..4: 13.3% 77.3%  9.5%
[libx264 @ 0x45131c0] mb P  I16..4:  1.0%  3.2%  0.0%  P16..4: 36.5% 21.1%  5.0%  0.2%  0.0%    skip:33.0%
[libx264 @ 0x45131c0] mb B  I16..4:  0.0%  0.1%  0.0%  B16..8: 39.2%  6.8%  0.3%  direct: 0.4%  skip:53.2%  L0:46.0% L1:53.0% BI: 1.0%
[libx264 @ 0x45131c0] final ratefactor: 34.88
[libx264 @ 0x45131c0] 8x8 transform intra:75.7% inter:85.6%
[libx264 @ 0x45131c0] direct mvs  spatial:99.2% temporal:0.8%
[libx264 @ 0x45131c0] coded y,uvDC,uvAC intra: 44.7% 51.5% 19.8% inter: 2.2% 3.5% 0.1%
[libx264 @ 0x45131c0] i16 v,h,dc,p: 30% 24%  3% 44%
[libx264 @ 0x45131c0] i8 v,h,dc,ddl,ddr,vr,hd,vl,hu:  4%  2%  1% 13% 18% 17% 18% 14% 12%
[libx264 @ 0x45131c0] i4 v,h,dc,ddl,ddr,vr,hd,vl,hu:  5%  3%  3% 13% 16% 15% 15% 12% 16%
[libx264 @ 0x45131c0] i8c dc,h,v,p: 42% 19% 17% 22%
[libx264 @ 0x45131c0] Weighted P-Frames: Y:0.0% UV:0.0%
[libx264 @ 0x45131c0] ref P L0: 56.3%  8.5% 12.8%  3.9%  3.3%  3.1%  2.8%  1.3%  1.1%  1.0%  0.9%  0.9%  1.2%  1.2%  1.1%  0.6%
[libx264 @ 0x45131c0] ref B L0: 95.3%  2.2%  0.9%  0.3%  0.3%  0.2%  0.2%  0.1%  0.1%  0.1%  0.1%  0.1%  0.1%  0.1%  0.1%
[libx264 @ 0x45131c0] ref B L1: 99.2%  0.8%
[libx264 @ 0x45131c0] kb/s:12869.34
